<svg width="512" height="512" viewBox="0 0 512 512" xmlns="http://www.w3.org/2000/svg">
  <!-- Background Circle -->
  <circle cx="256" cy="256" r="256" fill="#5865F2"/>
  
  <!-- Robot Head -->
  <rect x="146" y="146" width="220" height="200" rx="40" fill="#FFFFFF"/>
  
  <!-- Antenna -->
  <line x1="256" y1="146" x2="256" y2="100" stroke="#FFFFFF" stroke-width="12" stroke-linecap="round"/>
  <circle cx="256" cy="90" r="20" fill="#57F287"/>
  
  <!-- Left Eye -->
  <circle cx="206" cy="220" r="30" fill="#5865F2"/>
  <circle cx="216" cy="210" r="12" fill="#FFFFFF"/>
  
  <!-- Right Eye -->
  <circle cx="306" cy="220" r="30" fill="#5865F2"/>
  <circle cx="316" cy="210" r="12" fill="#FFFFFF"/>
  
  <!-- Smile/Mouth -->
  <path d="M 186 280 Q 256 320, 326 280" stroke="#5865F2" stroke-width="12" fill="none" stroke-linecap="round"/>
  
  <!-- Left Ear -->
  <rect x="110" y="200" width="36" height="80" rx="18" fill="#FFFFFF"/>
  <circle cx="128" cy="220" r="8" fill="#5865F2"/>
  <circle cx="128" cy="260" r="8" fill="#5865F2"/>
  
  <!-- Right Ear -->
  <rect x="366" y="200" width="36" height="80" rx="18" fill="#FFFFFF"/>
  <circle cx="384" cy="220" r="8" fill="#5865F2"/>
  <circle cx="384" cy="260" r="8" fill="#5865F2"/>
  
  <!-- Command Symbol on Chest -->
  <circle cx="256" cy="386" r="40" fill="#5865F2" opacity="0.3"/>
  <text x="256" y="402" font-family="Arial, sans-serif" font-size="40" font-weight="bold" fill="#5865F2" text-anchor="middle">/</text>
  
  <!-- Circuit Pattern Decorations -->
  <circle cx="176" cy="320" r="4" fill="#5865F2" opacity="0.5"/>
  <line x1="176" y1="320" x2="196" y2="320" stroke="#5865F2" stroke-width="2" opacity="0.5"/>
  <circle cx="196" cy="320" r="4" fill="#5865F2" opacity="0.5"/>
  
  <circle cx="336" cy="320" r="4" fill="#5865F2" opacity="0.5"/>
  <line x1="336" y1="320" x2="316" y2="320" stroke="#5865F2" stroke-width="2" opacity="0.5"/>
  <circle cx="316" cy="320" r="4" fill="#5865F2" opacity="0.5"/>
</svg>
