<svg width="512" height="512" viewBox="0 0 512 512" fill="none" xmlns="http://www.w3.org/2000/svg">
  <defs>
    <linearGradient id="bg" x1="0" y1="0" x2="1" y2="1">
      <stop offset="0%" stop-color="#5865F2"/>
      <stop offset="100%" stop-color="#8A5CFF"/>
    </linearGradient>
    <linearGradient id="accent" x1="0" y1="0" x2="1" y2="1">
      <stop offset="0%" stop-color="#57F287"/>
      <stop offset="100%" stop-color="#FEE75C"/>
    </linearGradient>
  </defs>
  <rect width="512" height="512" rx="120" fill="url(#bg)"/>

  <!-- Bot head -->
  <rect x="96" y="128" width="320" height="240" rx="72" fill="#1E1F22"/>
  <rect x="136" y="168" width="240" height="160" rx="56" fill="#2B2D31"/>

  <!-- Eyes -->
  <circle cx="196" cy="248" r="28" fill="#FFFFFF"/>
  <circle cx="316" cy="248" r="28" fill="#FFFFFF"/>
  <circle cx="196" cy="248" r="12" fill="#0B0C0F"/>
  <circle cx="316" cy="248" r="12" fill="#0B0C0F"/>

  <!-- Antenna -->
  <rect x="246" y="64" width="20" height="72" rx="10" fill="#2B2D31"/>
  <circle cx="256" cy="56" r="18" fill="url(#accent)"/>

  <!-- Music note -->
  <path d="M352 300V210C352 203.373 357.373 198 364 198H402V230H372V308C372 332.3 352.3 352 328 352C303.7 352 284 332.3 284 308C284 283.7 303.7 264 328 264C336.4 264 344.2 266.5 352 272Z" fill="url(#accent)"/>

  <!-- Smile -->
  <path d="M200 298C214 320 238 332 256 332C274 332 298 320 312 298" stroke="#FFFFFF" stroke-width="14" stroke-linecap="round"/>
</svg>
